<svg width="63" height="57" viewBox="0 0 63 57" fill="none" xmlns="http://www.w3.org/2000/svg">
<path opacity="0.1" d="M50.6165 12.9409C46.4205 5.38929 39.2743 0.880127 31.4999 0.880127C23.7255 0.880127 16.5793 5.38929 12.384 12.9409L2.27334 31.1376C0.595807 34.1563 -0.178218 37.6445 0.0344966 41.2221C0.247211 44.8005 1.42746 48.1328 3.44718 50.8609C5.46832 53.5866 8.13899 55.4497 11.1704 56.2491C14.2017 57.0485 17.3092 56.7071 20.1563 55.2634L20.347 55.1657C27.511 51.6053 35.6973 51.6382 42.8428 55.2634C44.6861 56.1982 46.6389 56.6709 48.6095 56.6709C49.6809 56.6709 50.7588 56.5306 51.8266 56.2499C54.858 55.4513 57.5286 53.5882 59.5505 50.8617C61.5709 48.136 62.7519 44.803 62.9653 41.2237C63.1787 37.6445 62.4047 34.1571 60.7272 31.1368L50.6165 12.9409Z" fill="#FDBE24"/>
<path d="M34.2145 14.07C33.9114 14.1513 33.6256 14.3263 33.3669 14.5874C33.0786 14.8782 32.8888 15.2207 32.7164 15.7579C32.5759 16.194 32.5513 16.3788 32.5513 16.9751C32.5513 17.4827 32.5562 17.5345 32.6203 17.7833C32.7681 18.3723 33.0022 18.7911 33.3866 19.1509C33.7168 19.4589 34.0741 19.5575 34.5151 19.4638C35.1952 19.3209 35.8186 18.6162 36.0749 17.702C36.1784 17.3275 36.2153 17.0835 36.2277 16.6548C36.2449 16.0437 36.1587 15.5632 35.9517 15.132C35.7053 14.617 35.2888 14.2031 34.8872 14.0799C34.695 14.0207 34.4141 14.0158 34.2145 14.07Z" fill="#F8BC3B"/>
<path d="M39.2733 15.5853C38.5021 15.6765 37.7284 16.2679 37.2257 17.155C36.755 17.9804 36.6023 18.8281 36.792 19.5599C36.9177 20.0428 37.2355 20.4494 37.6396 20.6441C37.7924 20.7155 37.8146 20.7205 38.0955 20.7205C38.4528 20.718 38.6672 20.6662 39.0318 20.4888C39.6503 20.1858 40.1801 19.6264 40.5201 18.9094C40.6655 18.6014 40.7493 18.3599 40.8355 17.9903C40.8922 17.7537 40.8996 17.6576 40.8996 17.3324C40.8996 16.9874 40.8922 16.9283 40.8331 16.7287C40.7345 16.4034 40.5916 16.1472 40.4019 15.955C40.0914 15.642 39.7464 15.5287 39.2733 15.5853Z" fill="#F8BC3B"/>
<path d="M20.3617 15.6814C20.1597 15.6913 19.9921 15.7036 19.9847 15.711C19.9601 15.7356 19.9256 17.3471 19.896 19.8063C19.8665 22.2999 19.8886 25.5746 19.9502 28.0338C19.9749 29.0662 19.9798 29.1007 20.0907 29.1475C20.172 29.1845 22.4389 29.2338 24.6172 29.2486C26.6944 29.2609 28.227 29.2412 28.2689 29.1993C28.3034 29.1648 28.2886 25.582 28.2541 25.518C28.1876 25.3948 28.1654 25.3923 26.8792 25.3652C26.2188 25.3529 25.4229 25.3406 25.11 25.3406H24.5433L24.5408 22.5981C24.5383 20.1192 24.5088 17.6995 24.4669 16.3492C24.4496 15.8514 24.4496 15.8465 24.3856 15.7751L24.3215 15.7061L23.7055 15.6814C23.0328 15.6543 20.9408 15.6543 20.3617 15.6814Z" fill="#F8BC3B"/>
<path d="M29.7915 17.4531C29.4687 17.5443 29.2149 17.7365 29.0178 18.0395C28.6507 18.5964 28.4732 19.3652 28.5422 20.0749C28.6383 21.0408 29.0819 21.8367 29.7743 22.2777C30.0404 22.4502 30.3656 22.5044 30.6786 22.433C30.9693 22.3664 31.3069 22.1398 31.4942 21.8835C32.1299 21.0235 32.2162 19.6732 31.7012 18.6235C31.3882 17.9829 30.9619 17.564 30.5061 17.4432C30.3164 17.394 29.9788 17.3989 29.7915 17.4531Z" fill="#F8BC3B"/>
<path d="M40.8776 20.6861C40.6953 20.7157 40.3602 20.8265 40.1901 20.9103C39.7318 21.1395 39.2341 21.583 38.9408 22.0265C38.7166 22.3617 38.4924 22.8348 38.4234 23.1083C38.3445 23.4286 38.3445 23.9165 38.4234 24.1949C38.6131 24.8528 39.0591 25.1929 39.7367 25.1929C40.1014 25.1929 40.3996 25.1189 40.7692 24.9341C41.3335 24.6508 41.8435 24.1407 42.191 23.5173C42.3191 23.2906 42.4891 22.8274 42.5335 22.5933C42.5803 22.3321 42.5704 21.9157 42.5088 21.6816C42.4029 21.2898 42.1441 20.9399 41.8411 20.7871C41.6094 20.6713 41.2127 20.6294 40.8776 20.6861Z" fill="#F8BC3B"/>
<path d="M33.9385 21.5977C33.1401 21.6741 32.4132 21.9649 31.7258 22.4799C30.8732 23.1181 30.198 23.7981 29.6781 24.5398C29.4514 24.8626 29.1459 25.3899 29.0892 25.5624C29.0104 25.7866 28.9956 26.1809 29.0523 26.4347C29.1484 26.8684 29.4539 27.2848 29.8038 27.4548C30.203 27.6495 30.7648 27.7209 31.5631 27.6766C31.8366 27.6618 32.2802 27.6495 32.5512 27.6495C33.0095 27.6495 33.0711 27.6544 33.421 27.7283C34.1282 27.8737 34.5397 28.1004 35.3208 28.7805C36.1217 29.4778 36.3089 29.6084 36.6909 29.7267C36.9299 29.8006 37.3019 29.8179 37.5262 29.7661C37.9327 29.67 38.2235 29.4433 38.3985 29.086C38.5635 28.7484 38.6054 28.5563 38.6178 28.0265C38.635 27.4031 38.5734 26.9374 38.3787 26.1661C37.9475 24.4634 37.5212 23.5 36.8436 22.6868C36.3065 22.0437 35.6017 21.6914 34.6605 21.5977C34.3771 21.5682 34.2514 21.5682 33.9385 21.5977Z" fill="#F8BC3B"/>
<path d="M20.7091 29.9089C20.7042 29.9139 20.4184 29.9237 20.0734 29.9311C19.7284 29.941 19.4426 29.9508 19.4377 29.9557C19.4204 29.9755 19.7358 31.9024 19.9724 33.2009C20.3494 35.2806 21.027 38.5233 21.8229 42.0469C21.9929 42.8034 22.1087 43.2642 22.1383 43.3036C22.1629 43.3381 22.2098 43.38 22.2443 43.3948C22.3206 43.4342 24.0825 43.4761 25.5412 43.4761C26.5367 43.4736 28.2714 43.4391 28.2935 43.4194C28.3182 43.3923 29.0352 40.1964 29.3974 38.4863C29.9937 35.6773 30.659 32.1414 30.9252 30.3746C30.9646 30.0962 30.9523 30.0223 30.8512 29.9779C30.7182 29.9163 27.6578 29.8818 27.0689 29.936C27.0344 29.9385 26.9235 29.9434 26.8225 29.9434L26.6352 29.9484L26.5662 30.2982C26.2508 31.8974 25.9157 34.0017 25.5289 36.8108C25.2751 38.6588 25.28 38.6194 25.2627 38.5479C25.2529 38.5134 25.1617 37.8753 25.0607 37.1311C24.6196 33.918 24.0159 30.2564 23.9001 30.0765C23.8262 29.9631 23.7424 29.9508 22.9367 29.9237C22.2024 29.9015 20.7313 29.8892 20.7091 29.9089Z" fill="#F8BC3B"/>
<path d="M32.9384 29.9238C32.3101 29.9336 31.7877 29.9509 31.7778 29.9632C31.7433 30.0002 31.699 32.6145 31.6842 35.4113C31.6694 38.3706 31.7285 43.1632 31.7852 43.2766C31.8 43.3086 31.8394 43.3554 31.8739 43.38C31.9306 43.4219 32.0587 43.4293 33.4756 43.4638C35.883 43.5205 37.63 43.5328 39.1651 43.5033C40.2739 43.4835 40.5844 43.4712 40.5992 43.4466C40.6263 43.4047 40.6238 40.0289 40.5992 39.8712C40.5745 39.716 40.5277 39.6766 40.3577 39.6544C40.2788 39.6445 39.2981 39.6273 38.177 39.6174L36.1368 39.6002V39.0236V38.4495H37.5906H39.0444V36.8355C39.0444 35.0737 39.0468 35.1156 38.9039 35.0515C38.8522 35.0293 38.5491 35.017 37.7014 35.0096C37.078 35.0022 36.4694 34.9924 36.3462 34.985L36.1244 34.9727L36.1318 34.3985L36.1392 33.8244L38.2756 33.8072C39.4509 33.7998 40.4464 33.785 40.4883 33.7776L40.5647 33.7628L40.5795 32.8609C40.5869 32.3632 40.5869 31.5377 40.577 31.0277L40.5598 30.0963L40.4908 30.0297C40.4242 29.9632 40.4144 29.9607 40.0595 29.9435C39.4879 29.9164 34.2 29.9016 32.9384 29.9238Z" fill="#F8BC3B"/>
</svg>
