<svg width="64" height="57" viewBox="0 0 64 57" fill="none" xmlns="http://www.w3.org/2000/svg">
<path opacity="0.15" d="M51.1165 12.9409C46.9205 5.38929 39.7743 0.880127 31.9999 0.880127C24.2255 0.880127 17.0793 5.38929 12.884 12.9409L2.77334 31.1376C1.09581 34.1563 0.321782 37.6445 0.534497 41.2221C0.747211 44.8005 1.92746 48.1328 3.94718 50.8609C5.96832 53.5866 8.63899 55.4497 11.6704 56.2491C14.7017 57.0485 17.8092 56.7071 20.6563 55.2634L20.847 55.1657C28.011 51.6053 36.1973 51.6382 43.3428 55.2634C45.1861 56.1982 47.1389 56.6709 49.1095 56.6709C50.1809 56.6709 51.2588 56.5306 52.3266 56.2499C55.358 55.4513 58.0286 53.5882 60.0505 50.8617C62.0709 48.136 63.2519 44.803 63.4653 41.2237C63.6787 37.6445 62.9047 34.1571 61.2272 31.1368L51.1165 12.9409Z" fill="#E9C5A5"/>
<path d="M45.0556 22.7866C46.7409 22.9908 48.1921 24.0009 48.9354 25.4765C49.0878 25.7842 49.2621 26.2743 49.3274 26.5955C49.4091 26.974 49.4418 27.4668 49.4009 27.6764C49.1886 28.7627 48.3255 30.2003 47.1248 31.4636L46.8634 31.7386L46.9805 31.9319C47.1466 32.2096 47.4488 32.6044 47.9416 33.1843C48.6794 34.0555 48.9844 34.4911 49.1967 34.9785C49.4499 35.5639 49.4853 36.1465 49.3138 36.9279C48.8864 38.8691 47.2174 40.3774 45.1918 40.6552C45.0257 40.6769 44.7643 40.7042 44.6064 40.7123C44.4485 40.7232 44.1844 40.7532 44.021 40.7831C42.5617 41.0472 41.0207 40.6361 39.8718 39.6777C38.8862 38.8555 38.26 37.6303 38.1892 36.3888L38.1728 36.0703H32.0007H25.8285L25.8121 36.318C25.6706 38.281 24.1432 40.0453 22.1502 40.5462C21.7636 40.6443 21.6084 40.6688 21.0666 40.7123C20.7998 40.7341 20.4812 40.7695 20.3615 40.794C20.0375 40.8539 19.3786 40.8757 19.0274 40.8376C16.6614 40.5844 14.8509 38.8201 14.6004 36.5277C14.5378 35.9668 14.6194 35.5203 14.8781 34.9812C15.1095 34.4993 15.3382 34.1862 16.2612 33.089C16.6532 32.6234 16.9064 32.2831 17.0616 32.0136L17.1297 31.891L16.8166 31.5507C15.7657 30.4099 15.0523 29.2964 14.7284 28.2917C14.5813 27.8289 14.5595 27.6655 14.5977 27.2762C14.7147 26.1027 15.2103 25.0954 16.0679 24.2786C16.4382 23.9246 16.7785 23.6905 17.2577 23.4509C17.9329 23.116 18.4638 22.9745 19.2479 22.92C19.4848 22.9037 19.8142 22.8655 19.9803 22.8356C21.5403 22.5552 23.1712 23.0371 24.331 24.118C25.1968 24.9266 25.7468 26.0837 25.8121 27.2272L25.8285 27.5485H32.0007H38.1728L38.1892 27.3225C38.3307 25.4003 39.7275 23.7041 41.6442 23.1269C42.0526 23.0044 42.3466 22.9554 42.932 22.9064C43.2015 22.8846 43.5201 22.8465 43.6399 22.8247C43.9094 22.773 44.7616 22.7512 45.0556 22.7866Z" fill="#F3A974"/>
</svg>
