<svg width="63" height="58" viewBox="0 0 63 58" fill="none" xmlns="http://www.w3.org/2000/svg">
<path opacity="0.1" d="M50.6165 12.9409C46.4205 5.38929 39.2743 0.880127 31.4999 0.880127C23.7255 0.880127 16.5793 5.38929 12.384 12.9409L2.27334 31.1376C0.595807 34.1563 -0.178218 37.6445 0.0344966 41.2221C0.247211 44.8005 1.42746 48.1328 3.44718 50.8609C5.46832 53.5866 8.13899 55.4497 11.1704 56.2491C14.2017 57.0485 17.3092 56.7071 20.1563 55.2634L20.347 55.1657C27.511 51.6053 35.6973 51.6382 42.8428 55.2634C44.6861 56.1982 46.6389 56.6709 48.6095 56.6709C49.6809 56.6709 50.7588 56.5306 51.8266 56.2499C54.858 55.4513 57.5286 53.5882 59.5505 50.8617C61.5709 48.136 62.7519 44.803 62.9653 41.2237C63.1787 37.6445 62.4047 34.1571 60.7272 31.1368L50.6165 12.9409Z" fill="#6BAC50"/>
<path d="M31.1355 14.7082C31.0238 14.8444 30.6768 15.1701 30.3534 15.4189C30.0359 15.6736 27.3838 17.7821 24.4553 20.1097C21.5269 22.4374 17.3283 25.7719 15.1172 27.531C12.5004 29.6099 11.1185 30.7411 11.1479 30.7885C11.195 30.8714 13.5589 33.8979 13.6647 34.0164C13.7177 34.0756 13.9882 33.8861 14.9937 33.0925L16.2521 32.0915L16.2698 37.5878L16.2815 43.0901H31.4236H46.5657V37.5227V31.9553L47.8477 32.974C48.5474 33.5307 49.1531 34.0105 49.1884 34.0401C49.2355 34.0756 49.6765 33.5544 50.5585 32.435C51.276 31.517 51.8581 30.753 51.8522 30.7293C51.8522 30.6997 50.5997 29.6928 49.0767 28.4845C38.0097 19.7248 32.2587 15.1346 31.9646 14.8266C31.5354 14.3706 31.406 14.3528 31.1355 14.7082ZM32.4527 28.8458C33.0172 28.988 33.9463 29.4736 34.4873 29.906C35.9692 31.0846 37.0277 33.0688 37.4334 35.4201C37.5863 36.3204 37.5746 38.2156 37.404 39.1218C37.1747 40.3834 36.6631 41.7456 36.0692 42.6873L35.8516 43.0309H31.2707H26.6899L26.4194 42.6103C24.9199 40.2768 24.5435 36.7172 25.4962 33.7736C25.749 33.0036 26.243 31.979 26.6605 31.3926C27.031 30.8655 27.7307 30.1311 28.1659 29.7994C28.8186 29.3078 29.7301 28.8991 30.5004 28.757C30.8944 28.68 32.0058 28.7333 32.4527 28.8458Z" fill="#9A9254"/>
</svg>
