<svg width="21" height="20" viewBox="0 0 21 20" fill="none" xmlns="http://www.w3.org/2000/svg">
<path d="M7.54548 18.1815C7.99735 18.1815 8.36366 17.8152 8.36366 17.3633C8.36366 16.9115 7.99735 16.5452 7.54548 16.5452C7.09361 16.5452 6.72729 16.9115 6.72729 17.3633C6.72729 17.8152 7.09361 18.1815 7.54548 18.1815Z" stroke="black" stroke-width="2" stroke-linecap="round" stroke-linejoin="round"/>
<path d="M16.5455 18.1815C16.9973 18.1815 17.3637 17.8152 17.3637 17.3633C17.3637 16.9115 16.9973 16.5452 16.5455 16.5452C16.0936 16.5452 15.7273 16.9115 15.7273 17.3633C15.7273 17.8152 16.0936 18.1815 16.5455 18.1815Z" stroke="black" stroke-width="2" stroke-linecap="round" stroke-linejoin="round"/>
<path d="M1 0.999756H4.27273L6.46545 11.9552C6.54027 12.3319 6.7452 12.6703 7.04436 12.9111C7.34351 13.1519 7.71784 13.2798 8.10182 13.2725H16.0545C16.4385 13.2798 16.8129 13.1519 17.112 12.9111C17.4112 12.6703 17.6161 12.3319 17.6909 11.9552L19 5.09066H8.5" stroke="black" stroke-width="2" stroke-linecap="round" stroke-linejoin="round"/>
<path d="M18.8182 5.63612C19.2701 5.63612 19.6364 5.26981 19.6364 4.81794C19.6364 4.36607 19.2701 3.99976 18.8182 3.99976C18.3663 3.99976 18 4.36607 18 4.81794C18 5.26981 18.3663 5.63612 18.8182 5.63612Z" stroke="#E27B3A" stroke-width="2" stroke-linecap="round" stroke-linejoin="round"/>
</svg>
