<svg width="79" height="23" viewBox="0 0 79 23" fill="none" xmlns="http://www.w3.org/2000/svg">
<path d="M41.2412 19.9998H37.8037L37.8252 17.2927H41.2412C42.0218 17.2927 42.6807 17.1137 43.2178 16.7556C43.7549 16.3904 44.1631 15.8533 44.4424 15.1443C44.7217 14.4281 44.8613 13.558 44.8613 12.5339V11.8142C44.8613 11.0408 44.7826 10.3604 44.625 9.77319C44.4674 9.17879 44.2347 8.68107 43.9268 8.28003C43.6188 7.87899 43.2357 7.57821 42.7773 7.37769C42.3262 7.17716 41.807 7.0769 41.2197 7.0769H37.7393V4.35913H41.2197C42.2796 4.35913 43.2464 4.53817 44.1201 4.89624C45.001 5.25431 45.7601 5.76636 46.3975 6.43237C47.042 7.09839 47.5397 7.88615 47.8906 8.79565C48.2415 9.70516 48.417 10.7185 48.417 11.8357V12.5339C48.417 13.644 48.2415 14.6573 47.8906 15.574C47.5397 16.4835 47.042 17.2712 46.3975 17.9373C45.7601 18.5961 45.0046 19.1046 44.1309 19.4626C43.2572 19.8207 42.2939 19.9998 41.2412 19.9998ZM39.791 4.35913V19.9998H36.2891V4.35913H39.791Z" fill="white"/>
<path d="M63.5957 11.8357V12.5339C63.5957 13.7227 63.431 14.7898 63.1016 15.7351C62.7793 16.6804 62.3174 17.4861 61.7158 18.1521C61.1214 18.8181 60.4124 19.3302 59.5889 19.6882C58.7725 20.0391 57.8665 20.2146 56.8711 20.2146C55.8757 20.2146 54.9661 20.0391 54.1426 19.6882C53.319 19.3302 52.6029 18.8181 51.9941 18.1521C51.3926 17.4861 50.9271 16.6804 50.5977 15.7351C50.2682 14.7898 50.1035 13.7227 50.1035 12.5339V11.8357C50.1035 10.6469 50.2682 9.57983 50.5977 8.63452C50.9271 7.68205 51.389 6.8728 51.9834 6.20679C52.585 5.54077 53.2975 5.03231 54.1211 4.6814C54.9447 4.32332 55.8542 4.14429 56.8496 4.14429C57.8451 4.14429 58.7546 4.32332 59.5781 4.6814C60.4017 5.03231 61.1107 5.54077 61.7051 6.20679C62.3066 6.8728 62.7721 7.68205 63.1016 8.63452C63.431 9.57983 63.5957 10.6469 63.5957 11.8357ZM60.0615 12.5339V11.8142C60.0615 11.0193 59.9899 10.3175 59.8467 9.70874C59.7035 9.09285 59.4958 8.57723 59.2236 8.16187C58.9515 7.7465 58.6149 7.43498 58.2139 7.22729C57.8128 7.01245 57.3581 6.90503 56.8496 6.90503C56.3197 6.90503 55.8577 7.01245 55.4639 7.22729C55.07 7.43498 54.737 7.7465 54.4648 8.16187C54.1999 8.57723 53.9958 9.09285 53.8525 9.70874C53.7165 10.3175 53.6484 11.0193 53.6484 11.8142V12.5339C53.6484 13.3217 53.7165 14.0235 53.8525 14.6394C53.9958 15.2481 54.2035 15.7638 54.4756 16.1863C54.7477 16.6088 55.0807 16.9275 55.4746 17.1423C55.8757 17.3572 56.3411 17.4646 56.8711 17.4646C57.3796 17.4646 57.8307 17.3572 58.2246 17.1423C58.6257 16.9275 58.9622 16.6088 59.2344 16.1863C59.5065 15.7638 59.7106 15.2481 59.8467 14.6394C59.9899 14.0235 60.0615 13.3217 60.0615 12.5339Z" fill="white"/>
<path d="M78.3447 11.739V18.0447C78.0869 18.3383 77.693 18.6534 77.1631 18.99C76.6403 19.3266 75.9707 19.6166 75.1543 19.8601C74.3379 20.0964 73.3639 20.2146 72.2324 20.2146C71.2083 20.2146 70.2773 20.0499 69.4395 19.7205C68.6016 19.3839 67.8818 18.8933 67.2803 18.2488C66.6787 17.5971 66.2132 16.8022 65.8838 15.864C65.5615 14.9259 65.4004 13.8516 65.4004 12.6414V11.7175C65.4004 10.5072 65.5615 9.43302 65.8838 8.49487C66.2061 7.55672 66.6608 6.76538 67.248 6.12085C67.8353 5.46916 68.5335 4.97502 69.3428 4.63843C70.152 4.30184 71.0472 4.13354 72.0283 4.13354C73.4248 4.13354 74.5671 4.35913 75.4551 4.8103C76.3431 5.25431 77.0163 5.8702 77.4746 6.65796C77.9401 7.44572 78.2266 8.35164 78.334 9.37573H74.9609C74.8893 8.85295 74.7461 8.40177 74.5312 8.02222C74.3236 7.64266 74.0264 7.35262 73.6396 7.1521C73.2529 6.94442 72.7516 6.84058 72.1357 6.84058C71.6416 6.84058 71.194 6.94442 70.793 7.1521C70.3991 7.35262 70.0661 7.65698 69.7939 8.06519C69.5218 8.47339 69.3141 8.98185 69.1709 9.59058C69.0277 10.1921 68.9561 10.894 68.9561 11.696V12.6414C68.9561 13.4434 69.0277 14.1488 69.1709 14.7576C69.3213 15.3663 69.5397 15.8748 69.8262 16.283C70.1126 16.684 70.4743 16.9884 70.9111 17.196C71.3551 17.4037 71.8708 17.5076 72.458 17.5076C72.9163 17.5076 73.3031 17.4718 73.6182 17.4001C73.9333 17.3214 74.1911 17.2247 74.3916 17.1101C74.5921 16.9884 74.7425 16.8774 74.8428 16.7771V14.1775H72.0605V11.739H78.3447Z" fill="white"/>
<path d="M15.0078 0.0367907C14.3818 0.216133 13.9458 0.479871 13.4816 0.951084C12.6904 1.75285 12.2016 2.8711 12.0363 4.26012C11.9168 5.27991 12.0434 6.16607 12.4267 6.97487C12.613 7.37224 12.7467 7.57268 13.0209 7.85752C13.5168 8.37445 14.0618 8.63818 14.6491 8.63818C14.9761 8.63818 15.2082 8.57489 15.5739 8.39203C16.8504 7.75202 17.7507 6.31728 17.9863 4.55903C18.0812 3.84166 18.0179 2.79022 17.8386 2.17835C17.5502 1.18317 16.8504 0.384926 16.0065 0.0895384C15.7462 -0.00189095 15.2328 -0.0300231 15.0078 0.0367907Z" fill="white"/>
<path d="M6.60678 0.156213C5.75227 0.437534 5.04545 1.27798 4.77819 2.32942C4.73951 2.4736 4.69028 2.82876 4.66566 3.11712C4.525 4.84724 5.11929 6.6055 6.21644 7.68859C6.65249 8.12112 7.2714 8.49387 7.76723 8.62398C8.47756 8.81035 9.41296 8.39892 9.92637 7.67452C10.4187 6.98177 10.6508 6.17297 10.6508 5.13911C10.6508 4.52724 10.5875 4.04196 10.4398 3.4758C10.0072 1.81952 9.0613 0.655558 7.76723 0.198411C7.45074 0.085883 6.88458 0.0647839 6.60678 0.156213Z" fill="white"/>
<path d="M20.1806 6.86578C19.3647 7.03809 18.5313 7.60777 17.9652 8.37085C17.4025 9.13745 17.0614 9.999 16.9102 11.0364C16.8258 11.6236 16.8223 11.8557 16.8926 12.2953C17.0052 12.988 17.2865 13.5823 17.7014 14.0008C17.9898 14.2927 18.2641 14.4615 18.6087 14.5494C19.3894 14.7568 20.4056 14.4122 21.2109 13.6667C21.7314 13.1885 22.287 12.2953 22.5366 11.5322C22.7687 10.8324 22.8813 9.9357 22.818 9.32031C22.7617 8.77173 22.5437 8.15986 22.2588 7.74491C22.1604 7.60074 21.8615 7.29832 21.6927 7.1682C21.2918 6.85875 20.7292 6.74622 20.1806 6.86578Z" fill="white"/>
<path d="M1.98256 7.29123C1.08585 7.42837 0.407166 8.01211 0.17156 8.84904C-0.0042659 9.48201 -0.0464641 10.1537 0.0519983 10.8148C0.224308 11.9823 0.734202 13.0337 1.50784 13.8108C2.03883 14.3418 2.52762 14.6478 3.19576 14.8693C3.98698 15.126 4.68676 14.9396 5.25644 14.3243C5.74172 13.8003 5.92809 13.2623 5.96326 12.2776C5.97732 11.8381 5.97029 11.6763 5.90699 11.3141C5.71359 10.1783 5.22479 9.22531 4.43006 8.42354C3.89555 7.88552 3.27664 7.48112 2.7984 7.35804C2.58741 7.30178 2.14081 7.26661 1.98256 7.29123Z" fill="white"/>
<path d="M11.0798 11.8029C9.42352 12.0139 7.80944 12.9704 6.79316 14.3524C5.93162 15.5199 5.267 16.7331 4.83446 17.9357C4.54259 18.741 4.28589 19.81 4.28589 20.2285C4.28589 21.1779 4.89425 22.1204 5.72766 22.4615C6.04766 22.5916 6.44503 22.6478 6.81778 22.6162C7.48943 22.5634 7.94658 22.4404 9.15626 21.9832C10.4503 21.4944 10.7844 21.403 11.558 21.3116C12.6165 21.185 13.3233 21.3327 14.8706 21.9938C16.2385 22.5775 16.548 22.6689 17.1212 22.6689C18.1937 22.6689 19.0517 22.1063 19.312 21.2342C19.4034 20.9177 19.4104 20.13 19.3225 19.7678C19.101 18.8535 18.6966 17.9357 18.0777 16.937C16.6886 14.697 15.6161 13.4557 14.3255 12.5941C13.7523 12.2108 13.2073 11.9787 12.5813 11.8557C12.2578 11.7889 11.4209 11.7607 11.0798 11.8029Z" fill="white"/>
</svg>
